<svg width="500" height="500" viewBox="0 0 500 500" fill="none" xmlns="http://www.w3.org/2000/svg">
<path d="M157.174 91.7387C159.347 83.5893 177.819 74.3533 190.315 89.5655C204.94 107.369 173.292 99.526 157.174 91.7387Z" fill="#E7AE43" stroke="black"/>
<path d="M131.637 110.754C144.677 77.7215 168.22 86.1246 178.361 94.4552L148.481 203.658C143.772 232.091 127.182 276.569 98.4962 227.02C69.81 177.471 108.638 128.864 131.637 110.754Z" fill="#F0B533" stroke="black"/>
<path d="M120.228 226.477C108.059 189.098 94.5123 179.753 89.2604 179.753C85.7833 203.659 96.1422 224.847 101.756 232.453L120.228 226.477Z" fill="#CF9A2A"/>
<path d="M131.637 110.754C144.677 77.7215 168.22 86.1246 178.361 94.4552L148.481 203.658C143.772 232.091 127.182 276.569 98.4962 227.02C69.81 177.471 108.638 128.864 131.637 110.754Z" stroke="black"/>
<path d="M64.7809 355.792C72.1698 357.965 106.253 362.13 122.371 363.941L149.535 392.736V431.31C90.859 418.271 61.5211 364.485 60.9778 362.855C60.4345 361.225 55.5449 353.075 64.7809 355.792Z" fill="#EFB635" stroke="black"/>
<path d="M111.505 391.65C110.635 378.611 115.851 367.383 118.568 363.398L123.457 364.485L137.04 391.65L148.992 430.768C96.8357 420.988 64.2366 369.918 60.4335 362.312C57.391 356.227 59.8902 355.068 61.5201 355.249C77.1671 372.2 101.363 386.579 111.505 391.65Z" fill="#CF992C"/>
<path d="M64.7809 355.792C72.1698 357.965 106.253 362.13 122.371 363.941L149.535 392.736V431.31C90.859 418.271 61.5211 364.485 60.9778 362.855C60.4345 361.225 55.5449 353.075 64.7809 355.792Z" stroke="black"/>
<path d="M157.07 485.623C153.81 484.537 180.433 455.742 189.668 450.852L257.58 461.175C259.21 462.805 263.991 469.759 270.076 484.537C277.682 503.009 254.32 494.859 253.234 494.859C252.147 494.859 226.612 489.426 217.376 496.489C208.14 503.552 202.164 495.946 200.534 494.316C198.904 492.686 194.014 484.537 179.345 485.623C167.61 486.492 160.33 486.71 157.07 485.623Z" fill="#F3DEBF" stroke="black"/>
<path d="M185.865 453.568L173.369 464.434C211.617 485.297 250.155 478.198 264.643 472.041L258.667 462.804L185.865 453.568Z" fill="#CEB094"/>
<path d="M157.07 485.623C153.81 484.537 180.433 455.742 189.668 450.852L257.58 461.175C259.21 462.805 263.991 469.759 270.076 484.537C277.682 503.009 254.32 494.859 253.234 494.859C252.147 494.859 226.612 489.426 217.376 496.489C208.14 503.552 202.164 495.946 200.534 494.316C198.904 492.686 194.014 484.537 179.345 485.623C167.61 486.492 160.33 486.71 157.07 485.623Z" stroke="black"/>
<path d="M131.763 407.388C113.834 382.396 121.44 315.027 131.22 297.098L174.684 234.076L331.154 215.06C347.815 219.588 385.919 238.422 405.043 277.54C424.167 316.657 419.531 360.845 414.822 378.05L332.241 443.789C310.69 449.584 265.197 461.609 255.635 463.348C246.073 465.086 225.573 465.521 216.518 465.521C149.692 451.395 132.932 409.018 131.763 407.388Z" fill="#EFB635" stroke="black"/>
<path d="M256.178 241.682L252.918 252.004L258.894 255.264C322.218 273.125 339.713 316.865 349.513 341.368L349.625 341.649C357.449 361.207 354.334 396.16 351.799 411.191C343.287 415.537 323.764 424.774 313.768 426.947C303.771 429.12 285.335 426.041 277.367 424.23C276.28 423.868 271.39 422.818 260.524 421.514C246.942 419.884 225.753 428.033 211.084 434.01C196.415 439.986 179.573 437.269 171.423 436.183C164.904 435.314 150.234 428.577 143.715 425.317C153.494 441.073 196.415 464.978 217.06 464.978C233.577 464.978 250.383 463.891 256.721 463.348L332.783 443.789C355.239 436.726 403.086 413.473 414.821 376.963C426.557 340.453 412.829 294.744 404.499 276.453L350.712 233.532L337.673 212.887L324.634 216.69L295.295 221.58L269.76 232.446L256.178 241.682Z" fill="#CF992C"/>
<path d="M131.763 407.388C113.834 382.396 121.44 315.027 131.22 297.098L174.684 234.076L331.154 215.06C347.815 219.588 385.919 238.422 405.043 277.54C424.167 316.657 419.531 360.845 414.822 378.05L332.241 443.789C310.69 449.584 265.197 461.609 255.635 463.348C246.073 465.086 225.573 465.521 216.518 465.521C149.692 451.395 132.932 409.018 131.763 407.388Z" stroke="black"/>
<path d="M377.347 384.026L361.592 368.814C348.117 388.372 338.954 412.821 336.057 422.6C328.45 470.411 363.222 473.127 393.646 451.395C417.986 434.009 436.024 399.963 442 385.113C438.088 385.113 423.709 387.286 417.008 388.372C417.877 372.291 414.473 365.373 412.662 363.924C406.577 365.228 386.583 377.869 377.347 384.026Z" fill="#F2DEBD" stroke="black"/>
<path d="M345.292 429.663C340.946 444.876 351.088 458.82 356.702 463.891C393.645 467.368 426.425 418.616 438.197 393.805L422.442 399.782L418.638 388.372H416.465V378.05C406.469 378.05 384.954 391.632 375.718 398.152C374.631 396.16 371.48 390.98 367.568 386.199C362.679 380.223 350.725 410.648 345.292 429.663Z" fill="#CCB09A"/>
<path d="M377.347 384.026L361.592 368.814C348.117 388.372 338.954 412.821 336.057 422.6C328.45 470.411 363.222 473.127 393.646 451.395C417.986 434.009 436.024 399.963 442 385.113C438.088 385.113 423.709 387.286 417.008 388.372C417.877 372.291 414.473 365.373 412.662 363.924C406.577 365.228 386.583 377.869 377.347 384.026Z" stroke="black"/>
<path d="M189.888 397.237L220.492 351.102L186.434 355.983M189.888 397.237L161.498 358.5L186.434 355.983M189.888 397.237L186.434 355.983" stroke="white" stroke-width="5.92987" stroke-linejoin="round"/>
<path d="M242.943 28.165L264.675 68.9124C274.455 69.4557 288.581 72.1722 288.581 72.1722C300.316 63.4794 325.344 55.5111 336.391 52.6135V38.4877C317.701 40.6609 292.746 56.4165 282.604 64.0227C283.474 58.8071 299.628 24.9052 307.596 8.60619L297.817 1C284.234 18.9289 276.266 43.1963 271.195 59.133L255.439 15.6691L242.943 28.165Z" fill="black"/>
<path d="M141.889 198.218C108.205 131.392 174.486 80.865 221.209 71.6289C258.155 65.6526 316.831 65.1093 357.579 114.006L354.862 207.997L341.823 221.036C329.508 230.453 298.142 248.853 271.194 247.115L141.889 198.218Z" fill="#EFB635" stroke="black" stroke-linecap="round" stroke-linejoin="round"/>
<path d="M314.658 99.3374C308.139 88.906 315.926 84.8494 320.634 84.125C329.326 87.3848 347.255 100.967 358.121 114.006C362.649 140.809 365.51 199.739 340.736 221.036C315.961 242.334 284.051 247.658 271.193 247.658L267.934 238.422L269.563 216.69L291.295 202.021C295.099 207.635 306.617 213.213 322.264 190.612C341.722 162.505 334.831 140.851 331.015 128.86L330.956 128.676C327.153 116.723 322.808 112.377 314.658 99.3374Z" fill="#CF992C"/>
<path d="M141.889 198.218C108.205 131.392 174.486 80.865 221.209 71.6289C258.155 65.6526 316.831 65.1093 357.579 114.006L354.862 207.997L341.823 221.036C329.508 230.453 298.142 248.853 271.194 247.115L141.889 198.218Z" stroke="black" stroke-linecap="round" stroke-linejoin="round"/>
<path d="M197.566 144.117C196.558 156.192 184.229 165.15 169.87 163.951C155.511 162.752 144.839 151.874 145.847 139.799C146.855 127.724 159.184 118.766 173.543 119.965C187.901 121.164 198.574 132.042 197.566 144.117Z" fill="white" stroke="black"/>
<circle cx="172.857" cy="142.258" r="3.2598" fill="black"/>
<path d="M319.048 150.407C319.048 156.652 315.458 162.356 309.553 166.518C303.65 170.679 295.468 173.269 286.407 173.269C277.346 173.269 269.164 170.679 263.261 166.518C257.356 162.356 253.766 156.652 253.766 150.407C253.766 144.162 257.356 138.459 263.261 134.297C269.164 130.135 277.346 127.545 286.407 127.545C295.468 127.545 303.65 130.135 309.553 134.297C315.458 138.459 319.048 144.162 319.048 150.407Z" fill="white" stroke="black"/>
<circle cx="283.689" cy="147.691" r="3.2598" fill="black"/>
<path d="M339.885 125.416L320.869 127.589C333.365 143.888 336.625 155.841 338.255 165.62C339.559 173.444 339.885 188.439 339.885 194.958L339.341 232.989C339.341 243.312 343.144 255.264 346.948 261.784C369.223 297.099 401.821 285.476 413.773 279.713C438.113 267.978 439.127 236.792 436.592 222.666C432.984 202.564 415.403 177.21 405.624 165.62C384.978 142.258 379.545 118.172 379.002 106.4L366.506 115.636L346.404 109.117C343.796 111.29 340.971 120.888 339.885 125.416Z" fill="#EFB635" stroke="black"/>
<path d="M400.19 176.486C393.236 161.709 387.152 140.81 384.979 132.479C388.238 144.432 402.365 161.274 403.994 163.447C405.624 165.62 433.876 199.848 436.592 222.667C439.309 245.485 436.049 266.131 415.403 278.627C398.886 288.623 381.718 286.776 375.199 284.603C364.767 271.564 375.561 262.871 382.261 260.154C383.348 259.792 388.346 257.981 399.647 253.635C413.773 248.202 415.403 234.076 415.403 222.667C415.403 211.257 408.883 194.958 400.19 176.486Z" fill="#CF992C"/>
<path d="M339.885 125.416L320.869 127.589C333.365 143.888 336.625 155.841 338.255 165.62C339.559 173.444 339.885 188.439 339.885 194.958L339.341 232.989C339.341 243.312 343.144 255.264 346.948 261.784C369.223 297.099 401.821 285.476 413.773 279.713C438.113 267.978 439.127 236.792 436.592 222.666C432.984 202.564 415.403 177.21 405.624 165.62C384.978 142.258 379.545 118.172 379.002 106.4L366.506 115.636L346.404 109.117C343.796 111.29 340.971 120.888 339.885 125.416Z" stroke="black"/>
<path d="M172.314 176.485C160.144 174.747 154.361 176.811 153.299 179.202C142.433 203.65 133.197 206.91 128.85 209.083C121.244 212.886 109.472 219.768 103.315 223.209C83.3212 235.814 82.6692 251.642 84.8424 257.98C94.6218 303.074 161.448 311.675 203.825 306.877C232.62 303.617 265.218 287.318 269.021 260.153C272.824 232.988 270.108 249.831 272.824 235.162C275.541 220.492 283.147 213.43 286.406 210.17C289.014 207.562 290.753 202.564 291.296 200.39C293.469 187.786 284.233 182.824 279.344 181.918L258.155 180.288L244.029 178.115C237.944 177.246 232.258 174.131 229.36 172.682L217.951 166.163C211.431 162.251 206.541 161.273 204.912 161.273C200.131 160.838 190.605 167.611 186.439 171.052C184.266 172.356 181.006 174.312 178.833 175.399C176.225 176.703 173.4 176.666 172.314 176.485Z" fill="#F1DFB9" stroke="black"/>
<path d="M204.369 186.808C207.411 178.55 214.022 169.603 217.101 166.163C225.25 171.052 232.313 175.399 241.549 178.115C241.549 179.202 239.792 184.743 220.668 196.044C196.763 210.17 200.566 197.131 204.369 186.808Z" fill="#CCB098"/>
<path d="M181.008 180.832C181.551 182.824 182.529 187.786 182.094 191.698" stroke="black"/>
<path d="M271.195 199.847C275.107 193.327 273.549 184.635 272.282 181.375C276.085 181.375 288.146 182.027 290.754 191.154C293.362 200.282 288.218 208.359 285.321 211.256C284.777 211.8 282.061 214.082 277.715 221.036C273.368 227.99 270.833 243.854 270.108 250.917C268.478 277.539 254.353 286.775 242.4 294.381C223.474 306.425 188.07 308.507 172.314 307.42C189.7 303.074 226.101 299.814 247.833 274.279C253.835 267.227 254.353 265.586 255.439 242.224C256.55 218.345 262.502 210.17 265.762 206.91C268.37 204.302 270.471 201.115 271.195 199.847Z" fill="#CCB098"/>
<path d="M209.26 196.044C212.882 192.241 221.104 184.2 225.015 184.635" stroke="black"/>
<path d="M172.314 176.485C160.144 174.747 154.361 176.811 153.299 179.202C142.433 203.65 133.197 206.91 128.85 209.083C121.244 212.886 109.472 219.768 103.315 223.209C83.3212 235.814 82.6692 251.642 84.8424 257.98C94.6218 303.074 161.448 311.675 203.825 306.877C232.62 303.617 265.218 287.318 269.021 260.153C272.824 232.988 270.108 249.831 272.824 235.162C275.541 220.492 283.147 213.43 286.406 210.17C289.014 207.562 290.753 202.564 291.296 200.39C293.469 187.786 284.233 182.824 279.344 181.918L258.155 180.288L244.029 178.115C237.944 177.246 232.258 174.131 229.36 172.682L217.951 166.163C211.431 162.251 206.541 161.273 204.912 161.273C200.131 160.838 190.605 167.611 186.439 171.052C184.266 172.356 181.006 174.312 178.833 175.399C176.225 176.703 173.4 176.666 172.314 176.485Z" stroke="black"/>
</svg>
